<?xml version="1.0" encoding="utf-8"?>
<!-- Generator: Adobe Illustrator 24.3.0, SVG Export Plug-In . SVG Version: 6.00 Build 0)  -->
<svg version="1.1" id="Layer_1" xmlns="http://www.w3.org/2000/svg" xmlns:xlink="http://www.w3.org/1999/xlink" x="0px" y="0px"
	 viewBox="0 0 1920 1080" style="enable-background:new 0 0 1920 1080;" xml:space="preserve">
<style type="text/css">
	.st0{fill:#EFEEEE;stroke:#B2B2B2;stroke-width:6;stroke-miterlimit:10;}
	.st1{fill:url(#SVGID_1_);}
	.st2{fill:url(#SVGID_2_);}
	.st3{fill:url(#SVGID_3_);}
	.st4{fill:url(#SVGID_4_);}
	.st5{fill:url(#SVGID_5_);}
	.st6{fill:url(#SVGID_6_);}
	.st7{fill:url(#SVGID_7_);}
	.st8{fill:url(#SVGID_8_);}
	.st9{fill:url(#SVGID_9_);}
	.st10{fill:url(#SVGID_10_);}
	.st11{fill:url(#SVGID_11_);}
	.st12{fill:url(#SVGID_12_);}
</style>
<path class="st0" d="M1319.04,763.98H600.96c-39.75,0-71.97-32.22-71.97-71.97V387.99c0-39.75,32.22-71.97,71.97-71.97h718.08
	c39.75,0,71.97,32.22,71.97,71.97v304.01C1391.01,731.76,1358.79,763.98,1319.04,763.98z"/>
<g>
	
		<linearGradient id="SVGID_1_" gradientUnits="userSpaceOnUse" x1="650.2228" y1="725.259" x2="561.7242" y2="639.873" gradientTransform="matrix(1 0 0 -1 -1.3 1081.996)">
		<stop  offset="0.048" style="stop-color:#FBEC59"/>
		<stop  offset="0.111" style="stop-color:#FFE94B"/>
		<stop  offset="0.225" style="stop-color:#FDC834"/>
		<stop  offset="0.368" style="stop-color:#F49720"/>
		<stop  offset="0.401" style="stop-color:#F18924"/>
		<stop  offset="0.462" style="stop-color:#EC6834"/>
		<stop  offset="0.534" style="stop-color:#E83D4C"/>
		<stop  offset="0.705" style="stop-color:#E11F85"/>
	</linearGradient>
	<path class="st1" d="M656,376.62c-2.32-5.57-7.01-11.59-10.69-13.49c2.62,5.08,4.44,10.54,5.4,16.17l0.01,0.09
		c-6.03-15.02-16.24-21.09-24.59-34.28c-0.42-0.67-0.84-1.34-1.26-2.04c-0.24-0.4-0.42-0.77-0.59-1.1
		c-0.35-0.67-0.61-1.38-0.79-2.11c0-0.07-0.05-0.13-0.12-0.14c-0.03-0.01-0.07-0.01-0.1,0c-0.01,0-0.02,0.01-0.03,0.02
		c-0.01,0-0.03,0.02-0.04,0.02l0.02-0.04c-13.39,7.84-17.94,22.35-18.35,29.61c-5.35,0.37-10.46,2.34-14.68,5.65
		c-0.44-0.37-0.9-0.72-1.38-1.04c-1.21-4.25-1.27-8.75-0.15-13.03c-4.92,2.38-9.29,5.76-12.83,9.92h-0.02
		c-2.11-2.68-1.96-11.51-1.84-13.35c-0.62,0.25-1.22,0.57-1.78,0.94c-1.87,1.33-3.61,2.82-5.21,4.46c-1.83,1.85-3.49,3.85-4.98,5.98
		v0.01v-0.01c-3.43,4.86-5.86,10.35-7.15,16.15l-0.07,0.35c-0.1,0.47-0.46,2.82-0.52,3.33c0,0.04-0.01,0.08-0.01,0.12
		c-0.47,2.43-0.76,4.88-0.87,7.35v0.28c0.05,29.44,23.96,53.27,53.41,53.22c25.89-0.05,48.01-18.69,52.43-44.2
		c0.09-0.69,0.16-1.37,0.24-2.06C660.55,394.32,659.36,385.11,656,376.62L656,376.62z M594.56,418.35c0.25,0.12,0.48,0.25,0.74,0.36
		l0.04,0.02C595.07,418.61,594.81,418.48,594.56,418.35z M650.71,379.41v-0.05V379.41L650.71,379.41z"/>
	
		<radialGradient id="SVGID_2_" cx="-7328.4854" cy="9253.9033" r="111.1339" gradientTransform="matrix(1 0 0 -1 7974 9606)" gradientUnits="userSpaceOnUse">
		<stop  offset="0.129" style="stop-color:#FBBC53"/>
		<stop  offset="0.186" style="stop-color:#F8AA37"/>
		<stop  offset="0.247" style="stop-color:#F59B25"/>
		<stop  offset="0.283" style="stop-color:#F49720"/>
		<stop  offset="0.403" style="stop-color:#EB5843"/>
		<stop  offset="0.467" style="stop-color:#E83D54"/>
		<stop  offset="0.71" style="stop-color:#E7246E"/>
		<stop  offset="0.782" style="stop-color:#E61579"/>
		<stop  offset="0.86" style="stop-color:#E40C80"/>
	</radialGradient>
	<path class="st2" d="M656,376.62c-2.32-5.57-7.01-11.59-10.69-13.49c2.62,5.08,4.44,10.54,5.4,16.17v0.05l0.01,0.06
		c4.11,11.76,3.52,24.65-1.66,35.98c-6.11,13.11-20.89,26.55-44.04,25.89c-25.01-0.71-47.04-19.27-51.15-43.57
		c-0.75-3.83,0-5.78,0.38-8.89c-0.51,2.42-0.8,4.88-0.86,7.36v0.28c0.05,29.44,23.96,53.27,53.41,53.22
		c25.89-0.05,48.01-18.69,52.43-44.2c0.09-0.69,0.16-1.37,0.24-2.06C660.56,394.32,659.37,385.11,656,376.62L656,376.62z"/>
	
		<radialGradient id="SVGID_3_" cx="-7369.748" cy="9208.5137" r="111.1339" gradientTransform="matrix(1 0 0 -1 7974 9606)" gradientUnits="userSpaceOnUse">
		<stop  offset="0.3" style="stop-color:#96191C"/>
		<stop  offset="0.351" style="stop-color:#B11B28;stop-opacity:0.74"/>
		<stop  offset="0.435" style="stop-color:#DC2B3E;stop-opacity:0.343"/>
		<stop  offset="0.497" style="stop-color:#E8394E;stop-opacity:0.094"/>
		<stop  offset="0.53" style="stop-color:#E83D54;stop-opacity:0"/>
	</radialGradient>
	<path class="st3" d="M656,376.62c-2.32-5.57-7.01-11.59-10.69-13.49c2.62,5.08,4.44,10.54,5.4,16.17v0.05l0.01,0.06
		c4.11,11.76,3.52,24.65-1.66,35.98c-6.11,13.11-20.89,26.55-44.04,25.89c-25.01-0.71-47.04-19.27-51.15-43.57
		c-0.75-3.83,0-5.78,0.38-8.89c-0.51,2.42-0.8,4.88-0.86,7.36v0.28c0.05,29.44,23.96,53.27,53.41,53.22
		c25.89-0.05,48.01-18.69,52.43-44.2c0.09-0.69,0.16-1.37,0.24-2.06C660.56,394.32,659.37,385.11,656,376.62L656,376.62z"/>
	
		<radialGradient id="SVGID_4_" cx="-7355.9937" cy="9278.6602" r="80.5033" gradientTransform="matrix(1 0 0 -1 7974 9606)" gradientUnits="userSpaceOnUse">
		<stop  offset="0.132" style="stop-color:#FBEC59"/>
		<stop  offset="0.252" style="stop-color:#FFDD41"/>
		<stop  offset="0.506" style="stop-color:#F59B22"/>
		<stop  offset="0.526" style="stop-color:#F49720"/>
	</radialGradient>
	<path class="st4" d="M630.08,382.88c0.12,0.08,0.22,0.16,0.33,0.24c-1.34-2.37-3.01-4.55-4.95-6.46
		c-16.57-16.57-4.34-35.93-2.28-36.92l0.02-0.03c-13.39,7.84-17.94,22.35-18.35,29.61c0.62-0.04,1.24-0.09,1.87-0.09
		C616.4,369.25,625.32,374.46,630.08,382.88L630.08,382.88z"/>
	
		<radialGradient id="SVGID_5_" cx="-7382.1265" cy="9179.6299" r="52.9124" gradientTransform="matrix(1 0 0 -1 7974 9606)" gradientUnits="userSpaceOnUse">
		<stop  offset="0.353" style="stop-color:#4A88C8"/>
		<stop  offset="0.472" style="stop-color:#5A71B5"/>
		<stop  offset="0.669" style="stop-color:#6A5BA4"/>
		<stop  offset="1" style="stop-color:#884F9A"/>
	</radialGradient>
	<path class="st5" d="M606.76,386.19c-0.09,1.33-4.77,5.9-6.41,5.9c-15.16,0-17.62,9.17-17.62,9.17
		c0.67,7.72,6.05,14.08,12.56,17.44c0.3,0.15,0.6,0.29,0.9,0.43c0.52,0.23,1.04,0.44,1.57,0.64c2.23,0.79,4.57,1.24,6.94,1.34
		c26.57,1.25,31.72-31.77,12.54-41.36c4.52-0.59,9.1,0.52,12.85,3.12c-4.77-8.41-13.68-13.62-23.35-13.64
		c-0.63,0-1.25,0.05-1.87,0.09c-5.35,0.37-10.46,2.34-14.68,5.65c0.81,0.69,1.73,1.61,3.66,3.51c3.62,3.56,12.89,7.26,12.92,7.69
		L606.76,386.19z"/>
	
		<radialGradient id="SVGID_6_" cx="-7465.8208" cy="9166.9023" r="28.0586" gradientTransform="matrix(0.972 -0.235 -0.275 -1.138 10387.3027 9065.4131)" gradientUnits="userSpaceOnUse">
		<stop  offset="0.206" style="stop-color:#6A5BA4;stop-opacity:0"/>
		<stop  offset="0.278" style="stop-color:#64539F;stop-opacity:0.064"/>
		<stop  offset="0.747" style="stop-color:#66358C;stop-opacity:0.45"/>
		<stop  offset="0.975" style="stop-color:#682382;stop-opacity:0.6"/>
	</radialGradient>
	<path class="st6" d="M606.76,386.19c-0.09,1.33-4.77,5.9-6.41,5.9c-15.16,0-17.62,9.17-17.62,9.17
		c0.67,7.72,6.05,14.08,12.56,17.44c0.3,0.15,0.6,0.29,0.9,0.43c0.52,0.23,1.04,0.44,1.57,0.64c2.23,0.79,4.57,1.24,6.94,1.34
		c26.57,1.25,31.72-31.77,12.54-41.36c4.52-0.59,9.1,0.52,12.85,3.12c-4.77-8.41-13.68-13.62-23.35-13.64
		c-0.63,0-1.25,0.05-1.87,0.09c-5.35,0.37-10.46,2.34-14.68,5.65c0.81,0.69,1.73,1.61,3.66,3.51c3.62,3.56,12.89,7.26,12.92,7.69
		L606.76,386.19z"/>
	
		<radialGradient id="SVGID_7_" cx="-7371.123" cy="9258.0293" r="38.0716" gradientTransform="matrix(1 0 0 -1 7974 9606)" gradientUnits="userSpaceOnUse">
		<stop  offset="0" style="stop-color:#FFE224"/>
		<stop  offset="0.121" style="stop-color:#FFDB28"/>
		<stop  offset="0.295" style="stop-color:#FDC72D"/>
		<stop  offset="0.502" style="stop-color:#F7A736"/>
		<stop  offset="0.732" style="stop-color:#EF7C40"/>
		<stop  offset="0.792" style="stop-color:#EE7140"/>
	</radialGradient>
	<path class="st7" d="M587.69,373.22c0.43,0.28,0.79,0.51,1.1,0.73c-1.21-4.25-1.27-8.75-0.15-13.03
		c-4.92,2.38-9.29,5.76-12.83,9.92C576.07,370.83,583.8,370.7,587.69,373.22z"/>
	
		<radialGradient id="SVGID_8_" cx="-7340.8643" cy="9282.7871" r="162.437" gradientTransform="matrix(1 0 0 -1 7974 9606)" gradientUnits="userSpaceOnUse">
		<stop  offset="0.113" style="stop-color:#FBEC59"/>
		<stop  offset="0.456" style="stop-color:#F49720"/>
		<stop  offset="0.622" style="stop-color:#EB593D"/>
		<stop  offset="0.716" style="stop-color:#E83D4C"/>
		<stop  offset="0.904" style="stop-color:#E11F85"/>
	</radialGradient>
	<path class="st8" d="M553.85,397.71c4.11,24.3,26.15,42.87,51.15,43.57c23.15,0.65,37.93-12.78,44.04-25.89
		c5.17-11.33,5.77-24.22,1.66-35.98v-0.05c0-0.04-0.01-0.06,0-0.05l0.01,0.09c1.89,12.35-4.39,24.3-14.21,32.4l-0.03,0.07
		c-19.13,15.58-37.44,9.4-41.14,6.88c-0.26-0.12-0.52-0.25-0.78-0.39c-11.15-5.33-15.76-15.49-14.77-24.21
		c-5.41,0.08-10.36-3.03-12.63-7.94c5.95-3.65,13.37-3.94,19.6-0.79c6.31,2.87,13.49,3.15,20.01,0.79
		c-0.02-0.43-9.3-4.13-12.92-7.69c-1.93-1.9-2.85-2.82-3.66-3.51c-0.44-0.37-0.9-0.72-1.38-1.04c-0.32-0.22-0.67-0.45-1.1-0.73
		c-3.89-2.53-11.62-2.39-11.88-2.38h-0.02c-2.11-2.68-1.96-11.51-1.84-13.35c-0.62,0.25-1.22,0.57-1.78,0.94
		c-1.87,1.33-3.61,2.82-5.21,4.46c-1.83,1.85-3.51,3.84-5,5.97v0.01v-0.01c-3.43,4.86-5.86,10.35-7.15,16.15
		C554.8,385.13,552.91,393.41,553.85,397.71L553.85,397.71z"/>
	
		<radialGradient id="SVGID_9_" cx="-7531.4556" cy="10414.1436" r="118.9738" gradientTransform="matrix(0.105 0.995 0.653 -0.069 -5389.998 8544.5938)" gradientUnits="userSpaceOnUse">
		<stop  offset="0" style="stop-color:#FBEC59"/>
		<stop  offset="0.06" style="stop-color:#FFE94B"/>
		<stop  offset="0.168" style="stop-color:#FDC834"/>
		<stop  offset="0.304" style="stop-color:#F49720"/>
		<stop  offset="0.356" style="stop-color:#F18924"/>
		<stop  offset="0.455" style="stop-color:#EC6834"/>
		<stop  offset="0.57" style="stop-color:#E83D4C"/>
		<stop  offset="0.737" style="stop-color:#E11F85"/>
	</radialGradient>
	<path class="st9" d="M625.46,376.66c1.95,1.91,3.61,4.09,4.95,6.46c0.29,0.22,0.57,0.44,0.8,0.65c12.09,11.14,5.75,26.89,5.28,28
		c9.82-8.09,16.09-20.05,14.21-32.4c-6.03-15.03-16.26-21.1-24.59-34.29c-0.42-0.67-0.84-1.34-1.26-2.04
		c-0.24-0.4-0.42-0.77-0.59-1.1c-0.35-0.67-0.61-1.38-0.8-2.11c0-0.07-0.05-0.13-0.12-0.14c-0.03-0.01-0.07-0.01-0.1,0
		c-0.01,0-0.02,0.01-0.03,0.02s-0.03,0.02-0.04,0.02c-2.06,0.98-14.29,20.34,2.28,36.9L625.46,376.66z"/>
	
		<radialGradient id="SVGID_10_" cx="-7371.123" cy="9244.2744" r="101.3959" gradientTransform="matrix(1 0 0 -1 7974 9606)" gradientUnits="userSpaceOnUse">
		<stop  offset="0.137" style="stop-color:#FBEC59"/>
		<stop  offset="0.48" style="stop-color:#F49720"/>
		<stop  offset="0.592" style="stop-color:#EB593D"/>
		<stop  offset="0.655" style="stop-color:#E83D4C"/>
		<stop  offset="0.904" style="stop-color:#E11F85"/>
	</radialGradient>
	<path class="st10" d="M631.21,383.79c-0.23-0.21-0.51-0.43-0.8-0.65c-0.11-0.08-0.22-0.16-0.33-0.24
		c-3.75-2.6-8.33-3.71-12.85-3.12c19.17,9.59,14.03,42.6-12.54,41.36c-2.37-0.1-4.7-0.55-6.94-1.34c-0.52-0.2-1.04-0.41-1.57-0.64
		c-0.3-0.14-0.6-0.28-0.9-0.43l0.04,0.02c3.71,2.53,22.01,8.71,41.14-6.88l0.03-0.07C636.97,410.68,643.3,394.93,631.21,383.79
		L631.21,383.79z"/>
	
		<radialGradient id="SVGID_11_" cx="-7344.9902" cy="9238.7734" r="110.9826" gradientTransform="matrix(1 0 0 -1 7974 9606)" gradientUnits="userSpaceOnUse">
		<stop  offset="0.094" style="stop-color:#FBEC59"/>
		<stop  offset="0.231" style="stop-color:#FFE142"/>
		<stop  offset="0.509" style="stop-color:#F8AD28"/>
		<stop  offset="0.626" style="stop-color:#F49720"/>
	</radialGradient>
	<path class="st11" d="M582.73,401.25c0,0,2.46-9.17,17.62-9.17c1.64,0,6.33-4.57,6.41-5.9c-6.52,2.36-13.7,2.08-20.01-0.79
		c-6.23-3.16-13.65-2.86-19.6,0.79c2.27,4.91,7.22,8.02,12.63,7.94c-0.99,8.72,3.62,18.87,14.77,24.21
		c0.25,0.12,0.48,0.25,0.74,0.36C588.77,415.34,583.4,408.98,582.73,401.25L582.73,401.25z"/>
	
		<linearGradient id="SVGID_12_" gradientUnits="userSpaceOnUse" x1="649.1577" y1="725.7047" x2="573.8672" y2="650.4005" gradientTransform="matrix(1 0 0 -1 -1.3 1081.996)">
		<stop  offset="0.167" style="stop-color:#FBEC59;stop-opacity:0.8"/>
		<stop  offset="0.266" style="stop-color:#FBEC59;stop-opacity:0.634"/>
		<stop  offset="0.489" style="stop-color:#FBEC59;stop-opacity:0.217"/>
		<stop  offset="0.6" style="stop-color:#FBEC59;stop-opacity:0"/>
	</linearGradient>
	<path class="st12" d="M656,376.62c-2.32-5.57-7.01-11.59-10.69-13.49c2.62,5.08,4.44,10.54,5.4,16.17l0.01,0.09
		c-6.03-15.02-16.24-21.09-24.59-34.28c-0.42-0.67-0.84-1.34-1.26-2.04c-0.24-0.4-0.42-0.77-0.59-1.1
		c-0.35-0.67-0.61-1.38-0.79-2.11c0-0.07-0.05-0.13-0.12-0.14c-0.03-0.01-0.07-0.01-0.1,0c-0.01,0-0.02,0.01-0.03,0.02
		c-0.01,0-0.03,0.02-0.04,0.02l0.02-0.04c-13.39,7.84-17.94,22.35-18.35,29.61c0.62-0.04,1.24-0.09,1.87-0.09
		c9.67,0.02,18.59,5.23,23.35,13.64c-3.75-2.6-8.33-3.71-12.85-3.12c19.17,9.59,14.03,42.6-12.54,41.36
		c-2.37-0.1-4.7-0.55-6.94-1.34c-0.52-0.2-1.04-0.41-1.57-0.64c-0.3-0.14-0.6-0.28-0.9-0.43l0.04,0.02
		c-0.26-0.12-0.52-0.25-0.78-0.39c0.25,0.12,0.48,0.25,0.74,0.36c-6.51-3.36-11.88-9.72-12.56-17.44c0,0,2.46-9.17,17.62-9.17
		c1.64,0,6.33-4.57,6.41-5.9c-0.02-0.43-9.3-4.13-12.92-7.69c-1.93-1.9-2.85-2.82-3.66-3.51c-0.44-0.37-0.9-0.72-1.38-1.04
		c-1.21-4.25-1.27-8.75-0.15-13.03c-4.92,2.38-9.29,5.76-12.83,9.92h-0.02c-2.11-2.68-1.96-11.51-1.84-13.35
		c-0.62,0.25-1.22,0.57-1.78,0.94c-1.87,1.33-3.61,2.82-5.21,4.46c-1.83,1.85-3.49,3.85-4.98,5.98v0.01v-0.01
		c-3.43,4.86-5.86,10.35-7.15,16.15l-0.07,0.35c-0.1,0.47-0.55,2.85-0.61,3.36l0,0c-0.41,2.46-0.67,4.94-0.79,7.43v0.28
		c0.05,29.44,23.96,53.27,53.41,53.22c25.89-0.05,48.01-18.69,52.43-44.2c0.09-0.69,0.16-1.37,0.24-2.06
		C660.55,394.33,659.36,385.12,656,376.62L656,376.62z M650.71,379.36l0.01,0.06L650.71,379.36z"/>
</g>
<g>
	<path d="M692,384.24v8.81h13.23v5.68H692v17.21h-6.68v-37.64h24.79v5.94H692z"/>
	<path d="M717.36,415.95V393.7h-3.52v-5.27h10.02v27.52H717.36z M720.68,377.77c1.03,0,1.91,0.36,2.63,1.09
		c0.73,0.73,1.09,1.61,1.09,2.63s-0.36,1.91-1.09,2.63s-1.61,1.09-2.63,1.09c-1.03,0-1.91-0.36-2.63-1.09
		c-0.73-0.73-1.09-1.61-1.09-2.63s0.36-1.91,1.09-2.63C718.77,378.13,719.65,377.77,720.68,377.77z"/>
	<path d="M747.25,394.42c-1.15-0.75-2.41-1.13-3.78-1.13c-1.49,0-2.81,0.68-3.97,2.03c-1.16,1.35-1.73,3.01-1.73,4.96v15.67h-6.42
		v-27.52h6.42v2.52c1.8-2.02,4.19-3.03,7.17-3.03c2.19,0,3.87,0.33,5.04,1L747.25,394.42z"/>
	<path d="M778.39,404.15h-19.66c0.12,2.19,0.87,3.9,2.26,5.11c1.39,1.22,3.25,1.82,5.6,1.82c2.93,0,5.16-0.76,6.68-2.29l2.49,4.91
		c-2.26,1.83-5.64,2.75-10.12,2.75c-4.2,0-7.52-1.23-9.96-3.69c-2.44-2.46-3.66-5.89-3.66-10.29c0-4.33,1.34-7.84,4.02-10.53
		c2.68-2.69,5.9-4.03,9.65-4.03c3.99,0,7.19,1.19,9.61,3.57c2.42,2.38,3.62,5.41,3.62,9.1
		C778.93,401.37,778.75,402.56,778.39,404.15z M758.96,399.32h13.52c-0.45-4.02-2.67-6.04-6.68-6.04
		C762.13,393.29,759.85,395.3,758.96,399.32z"/>
	<path d="M799.4,383.03c-1.4-0.46-2.48-0.69-3.24-0.69c-1.22,0-2.25,0.52-3.1,1.57c-0.85,1.04-1.27,2.33-1.27,3.85
		c0,0.22,0.01,0.45,0.03,0.67h5.7v5.29h-5.6v22.23h-6.42v-22.23h-4.01v-5.29h4.03c0.14-3.37,1.13-6.1,2.99-8.17
		c1.86-2.07,4.26-3.11,7.21-3.11c1.52,0,3.38,0.33,5.58,1L799.4,383.03z"/>
	<path d="M801.72,402.12c0-4.2,1.21-7.61,3.64-10.25c2.42-2.64,5.62-3.96,9.6-3.96c4.18,0,7.43,1.27,9.74,3.8
		c2.31,2.54,3.47,6,3.47,10.41c0,4.39-1.18,7.87-3.53,10.46c-2.36,2.59-5.58,3.88-9.67,3.88c-4.18,0-7.43-1.31-9.75-3.92
		C802.88,409.93,801.72,406.46,801.72,402.12z M808.4,402.12c0,6.06,2.18,9.1,6.55,9.1c2,0,3.59-0.79,4.77-2.36
		c1.17-1.58,1.76-3.82,1.76-6.73c0-5.98-2.18-8.97-6.53-8.97c-2,0-3.6,0.79-4.78,2.36C808.99,397.1,808.4,399.3,808.4,402.12z"/>
	<path d="M850.97,415.95l-7.07-8.97l-6.35,8.97h-7.61l10.56-14.08l-9.71-13.44h7.37l5.81,8.4l6.48-8.4h7.32l-10.56,13.44
		l11.54,14.08H850.97z"/>
	<path d="M884.12,415.25v11.49h-6.42v-38.31h6.42v1.85c1.61-1.58,3.59-2.36,5.94-2.36c8.77,0,13.16,4.83,13.16,14.49
		c0,4.5-1.21,7.97-3.64,10.41c-2.42,2.43-5.73,3.65-9.93,3.65C887.62,416.46,885.78,416.06,884.12,415.25z M884.12,395.16v14.47
		c1.16,0.94,2.53,1.41,4.09,1.41c2.96,0,5.09-0.71,6.38-2.12c1.29-1.41,1.94-3.64,1.94-6.69c0-3.25-0.64-5.55-1.93-6.87
		c-1.28-1.33-3.41-1.99-6.37-1.99C886.69,393.36,885.32,393.96,884.12,395.16z"/>
	<path d="M924.76,394.42c-1.15-0.75-2.41-1.13-3.78-1.13c-1.49,0-2.81,0.68-3.97,2.03c-1.16,1.35-1.73,3.01-1.73,4.96v15.67h-6.42
		v-27.52h6.42v2.52c1.8-2.02,4.19-3.03,7.17-3.03c2.19,0,3.87,0.33,5.04,1L924.76,394.42z"/>
	<path d="M955.91,404.15h-19.66c0.12,2.19,0.87,3.9,2.26,5.11c1.39,1.22,3.25,1.82,5.6,1.82c2.93,0,5.16-0.76,6.68-2.29l2.49,4.91
		c-2.26,1.83-5.64,2.75-10.12,2.75c-4.2,0-7.52-1.23-9.96-3.69c-2.44-2.46-3.66-5.89-3.66-10.29c0-4.33,1.34-7.84,4.02-10.53
		c2.68-2.69,5.9-4.03,9.65-4.03c3.99,0,7.19,1.19,9.61,3.57c2.42,2.38,3.62,5.41,3.62,9.1
		C956.45,401.37,956.27,402.56,955.91,404.15z M936.48,399.32H950c-0.45-4.02-2.67-6.04-6.68-6.04
		C939.65,393.29,937.37,395.3,936.48,399.32z"/>
	<path d="M972.99,416.46h-2.31l-12.44-28.03h7.04l6.58,16.8l7.07-16.8h6.81L972.99,416.46z"/>
	<path d="M1013.9,404.15h-19.66c0.12,2.19,0.87,3.9,2.26,5.11c1.39,1.22,3.25,1.82,5.6,1.82c2.93,0,5.16-0.76,6.68-2.29l2.49,4.91
		c-2.26,1.83-5.64,2.75-10.12,2.75c-4.2,0-7.52-1.23-9.96-3.69c-2.44-2.46-3.66-5.89-3.66-10.29c0-4.33,1.34-7.84,4.02-10.53
		c2.68-2.69,5.9-4.03,9.65-4.03c3.99,0,7.19,1.19,9.61,3.57c2.42,2.38,3.62,5.41,3.62,9.1
		C1014.44,401.37,1014.26,402.56,1013.9,404.15z M994.47,399.32h13.51c-0.45-4.02-2.67-6.04-6.68-6.04
		C997.64,393.29,995.36,395.3,994.47,399.32z"/>
	<path d="M1037.28,415.95v-15.9c0-2.35-0.45-4.06-1.35-5.14s-2.37-1.62-4.41-1.62c-0.94,0-1.95,0.27-3.02,0.8
		c-1.07,0.53-1.91,1.19-2.5,1.98v19.89h-6.42v-27.52h4.62l1.18,2.57c1.75-2.06,4.33-3.08,7.73-3.08c3.27,0,5.85,0.98,7.75,2.94
		c1.89,1.96,2.84,4.7,2.84,8.21v16.88H1037.28z"/>
	<path d="M1051.62,393.59h-3.19v-5.16h3.19v-5.6l6.42-2.36v7.97h7.55v5.16h-7.55v12.05c0,1.97,0.31,3.36,0.93,4.18
		c0.62,0.81,1.7,1.22,3.24,1.22c1.54,0,2.98-0.42,4.32-1.26v5.91c-1.49,0.51-3.61,0.77-6.37,0.77c-2.74,0-4.85-0.77-6.32-2.33
		c-1.47-1.55-2.21-3.76-2.21-6.62V393.59z"/>
	<path d="M1096.07,404.15h-19.66c0.12,2.19,0.87,3.9,2.26,5.11c1.39,1.22,3.25,1.82,5.6,1.82c2.93,0,5.16-0.76,6.68-2.29l2.49,4.91
		c-2.26,1.83-5.64,2.75-10.12,2.75c-4.2,0-7.52-1.23-9.96-3.69c-2.44-2.46-3.66-5.89-3.66-10.29c0-4.33,1.34-7.84,4.02-10.53
		c2.68-2.69,5.9-4.03,9.65-4.03c3.99,0,7.19,1.19,9.61,3.57c2.42,2.38,3.62,5.41,3.62,9.1
		C1096.61,401.37,1096.43,402.56,1096.07,404.15z M1076.64,399.32h13.51c-0.45-4.02-2.67-6.04-6.68-6.04
		C1079.81,393.29,1077.53,395.3,1076.64,399.32z"/>
	<path d="M1119.45,415.95v-1.67c-0.53,0.58-1.43,1.09-2.7,1.53c-1.27,0.44-2.58,0.65-3.93,0.65c-3.84,0-6.86-1.22-9.06-3.65
		c-2.2-2.43-3.3-5.82-3.3-10.17c0-4.35,1.26-7.89,3.79-10.62c2.53-2.73,5.69-4.1,9.49-4.1c2.09,0,3.99,0.43,5.7,1.28v-11.02
		l6.42-1.54v39.31H1119.45z M1119.45,395.01c-1.37-1.1-2.8-1.64-4.29-1.64c-2.57,0-4.55,0.78-5.94,2.35
		c-1.39,1.57-2.08,3.82-2.08,6.74c0,5.72,2.76,8.58,8.27,8.58c0.62,0,1.38-0.18,2.27-0.55c0.9-0.37,1.49-0.74,1.76-1.12V395.01z"/>
	<path d="M1163.46,413.2c-0.58,0.96-1.6,1.74-3.04,2.35c-1.45,0.61-2.96,0.91-4.54,0.91c-2.96,0-5.29-0.74-6.99-2.22
		c-1.7-1.48-2.54-3.58-2.54-6.31c0-3.19,1.2-5.68,3.58-7.48c2.39-1.8,5.79-2.7,10.19-2.7c0.75,0,1.64,0.13,2.67,0.39
		c0-3.24-2.05-4.86-6.14-4.86c-2.42,0-4.44,0.4-6.06,1.21l-1.39-4.98c2.21-1.06,4.84-1.59,7.89-1.59c4.2,0,7.27,0.96,9.22,2.86
		c1.95,1.91,2.93,5.53,2.93,10.86v5.88c0,3.67,0.74,5.97,2.21,6.91c-0.53,0.93-1.12,1.49-1.77,1.71c-0.65,0.21-1.4,0.32-2.24,0.32
		c-0.92,0-1.76-0.34-2.49-1.03C1164.22,414.75,1163.72,414,1163.46,413.2z M1162.85,403c-1.1-0.22-1.92-0.33-2.47-0.33
		c-5.07,0-7.61,1.66-7.61,4.98c0,2.47,1.43,3.7,4.29,3.7c3.85,0,5.78-1.93,5.78-5.78V403z"/>
	<path d="M1197.94,415.25v11.49h-6.42v-38.31h6.42v1.85c1.61-1.58,3.59-2.36,5.94-2.36c8.77,0,13.16,4.83,13.16,14.49
		c0,4.5-1.21,7.97-3.64,10.41c-2.42,2.43-5.73,3.65-9.93,3.65C1201.45,416.46,1199.6,416.06,1197.94,415.25z M1197.94,395.16v14.47
		c1.17,0.94,2.53,1.41,4.09,1.41c2.96,0,5.09-0.71,6.38-2.12c1.29-1.41,1.94-3.64,1.94-6.69c0-3.25-0.64-5.55-1.93-6.87
		c-1.28-1.33-3.41-1.99-6.37-1.99C1200.51,393.36,1199.14,393.96,1197.94,395.16z"/>
	<path d="M1220.89,402.12c0-4.2,1.21-7.61,3.64-10.25c2.42-2.64,5.62-3.96,9.6-3.96c4.18,0,7.43,1.27,9.74,3.8
		c2.31,2.54,3.47,6,3.47,10.41c0,4.39-1.18,7.87-3.53,10.46s-5.58,3.88-9.67,3.88c-4.18,0-7.43-1.31-9.75-3.92
		S1220.89,406.46,1220.89,402.12z M1227.57,402.12c0,6.06,2.18,9.1,6.55,9.1c2,0,3.59-0.79,4.77-2.36c1.17-1.58,1.76-3.82,1.76-6.73
		c0-5.98-2.18-8.97-6.53-8.97c-2,0-3.6,0.79-4.78,2.36C1228.16,397.1,1227.57,399.3,1227.57,402.12z"/>
	<path d="M1258.38,415.25v11.49h-6.42v-38.31h6.42v1.85c1.61-1.58,3.59-2.36,5.94-2.36c8.77,0,13.16,4.83,13.16,14.49
		c0,4.5-1.21,7.97-3.64,10.41c-2.42,2.43-5.73,3.65-9.93,3.65C1261.88,416.46,1260.04,416.06,1258.38,415.25z M1258.38,395.16v14.47
		c1.17,0.94,2.53,1.41,4.09,1.41c2.96,0,5.09-0.71,6.38-2.12c1.29-1.41,1.94-3.64,1.94-6.69c0-3.25-0.64-5.55-1.93-6.87
		c-1.28-1.33-3.41-1.99-6.37-1.99C1260.94,393.36,1259.57,393.96,1258.38,395.16z"/>
	<path d="M1300.85,415.97v-2.31c-0.91,0.77-2.16,1.43-3.75,1.98c-1.59,0.55-3.06,0.82-4.39,0.82c-6.39,0-9.58-3.39-9.58-10.17
		v-17.86h6.42v17.37c0,3.53,1.58,5.29,4.75,5.29c1.46,0,2.81-0.38,4.06-1.13c1.25-0.75,2.08-1.63,2.49-2.62v-18.91h6.42v27.54
		H1300.85z"/>
	<path d="M1320.12,415.25v11.49h-6.42v-38.31h6.42v1.85c1.61-1.58,3.59-2.36,5.94-2.36c8.77,0,13.16,4.83,13.16,14.49
		c0,4.5-1.21,7.97-3.64,10.41c-2.42,2.43-5.73,3.65-9.93,3.65C1323.62,416.46,1321.78,416.06,1320.12,415.25z M1320.12,395.16v14.47
		c1.17,0.94,2.53,1.41,4.09,1.41c2.96,0,5.09-0.71,6.38-2.12c1.29-1.41,1.94-3.64,1.94-6.69c0-3.25-0.64-5.55-1.93-6.87
		c-1.28-1.33-3.41-1.99-6.37-1.99C1322.69,393.36,1321.32,393.96,1320.12,395.16z"/>
</g>
<g>
	<path class="st0" d="M875.6,680.44H630.92c-29.36,0-53.16-23.8-53.16-53.16v-17.72c0-29.36,23.8-53.16,53.16-53.16H875.6
		c29.36,0,53.16,23.8,53.16,53.16v17.72C928.77,656.63,904.97,680.44,875.6,680.44z"/>
	<path class="st0" d="M1289.08,680.44H1044.4c-29.36,0-53.16-23.8-53.16-53.16v-17.72c0-29.36,23.8-53.16,53.16-53.16h244.68
		c29.36,0,53.16,23.8,53.16,53.16v17.72C1342.24,656.63,1318.44,680.44,1289.08,680.44z"/>
</g>
<g>
	<g>
		<g>
			<path d="M695.73,634.46l-2.75-7.63h-12.9l-2.62,7.63h-7.43l15.01-38.16h2.93l15.13,38.16H695.73z M686.5,607.82l-4.52,13.9h9.04
				L686.5,607.82z"/>
			<path d="M707.8,596.69l6.42-1.54v30.94c0,3.39,1.01,5.41,3.03,6.06c-0.99,1.88-2.69,2.83-5.09,2.83c-2.91,0-4.37-2.02-4.37-6.06
				V596.69z"/>
			<path d="M723.32,596.69l6.42-1.54v30.94c0,3.39,1.01,5.41,3.03,6.06c-0.99,1.88-2.69,2.83-5.09,2.83c-2.91,0-4.37-2.02-4.37-6.06
				V596.69z"/>
			<path d="M735.94,620.64c0-4.2,1.21-7.61,3.64-10.25s5.62-3.96,9.6-3.96c4.18,0,7.43,1.27,9.74,3.8c2.31,2.54,3.47,6,3.47,10.41
				c0,4.38-1.18,7.87-3.53,10.46c-2.36,2.59-5.58,3.88-9.67,3.88c-4.18,0-7.43-1.31-9.75-3.92
				C737.1,628.44,735.94,624.97,735.94,620.64z M742.62,620.64c0,6.06,2.18,9.1,6.55,9.1c2,0,3.59-0.79,4.77-2.36
				c1.17-1.58,1.76-3.82,1.76-6.73c0-5.98-2.18-8.97-6.53-8.97c-2,0-3.6,0.79-4.78,2.36C743.21,615.61,742.62,617.81,742.62,620.64z
				"/>
			<path d="M794.54,634.97h-2.34l-7.55-16.91l-7.53,16.91h-2.36l-10.38-28.03h6.76l5.52,16.42l6.73-16.42h2.31l6.96,16.52
				l5.96-16.52h6.32L794.54,634.97z"/>
		</g>
	</g>
	<g>
		<g>
			<path d="M1122.17,634.46h-11.51v-37.62c5.07-0.24,8.62-0.36,10.66-0.36c3.91,0,6.96,0.83,9.16,2.5c2.2,1.67,3.3,4.06,3.3,7.16
				c0,2.98-1.58,5.34-4.73,7.07c4.68,1.63,7.01,4.98,7.01,10.07c0,3.43-1.29,6.15-3.88,8.16
				C1129.6,633.46,1126.26,634.46,1122.17,634.46z M1117.34,602.19v9.02c1.03,0.07,2.11,0.1,3.24,0.1c4.35,0,6.53-1.63,6.53-4.91
				c0-2.89-1.98-4.34-5.94-4.34C1120.12,602.06,1118.84,602.1,1117.34,602.19z M1117.34,616.42v12.44c1.35,0.12,2.45,0.18,3.29,0.18
				c2.98,0,5.14-0.5,6.49-1.52s2.02-2.69,2.02-5.04c0-2.14-0.63-3.7-1.88-4.68c-1.25-0.98-3.43-1.46-6.55-1.46
				C1120.05,616.35,1118.93,616.37,1117.34,616.42z"/>
			<path d="M1142.7,596.69l6.42-1.54v30.94c0,3.39,1.01,5.41,3.03,6.06c-0.99,1.88-2.69,2.83-5.09,2.83c-2.91,0-4.37-2.02-4.37-6.06
				V596.69z"/>
			<path d="M1155.31,620.64c0-4.2,1.21-7.61,3.64-10.25s5.62-3.96,9.6-3.96c4.18,0,7.43,1.27,9.74,3.8c2.31,2.54,3.47,6,3.47,10.41
				c0,4.38-1.18,7.87-3.53,10.46c-2.36,2.59-5.58,3.88-9.67,3.88c-4.18,0-7.43-1.31-9.75-3.92
				C1156.47,628.44,1155.31,624.97,1155.31,620.64z M1161.99,620.64c0,6.06,2.18,9.1,6.55,9.1c2,0,3.59-0.79,4.77-2.36
				c1.17-1.58,1.76-3.82,1.76-6.73c0-5.98-2.17-8.97-6.53-8.97c-2,0-3.6,0.79-4.78,2.36
				C1162.58,615.61,1161.99,617.81,1161.99,620.64z"/>
			<path d="M1208.47,609.13l-2.75,4.8c-1.51-1.42-3.53-2.13-6.06-2.13c-2.43,0-4.36,0.81-5.77,2.43c-1.41,1.62-2.12,3.86-2.12,6.72
				c0,5.77,2.75,8.66,8.25,8.66c2.38,0,4.48-0.79,6.29-2.36l2.36,5.06c-1.87,1.17-3.5,1.9-4.9,2.21c-1.4,0.31-3.04,0.46-4.95,0.46
				c-4.25,0-7.6-1.24-10.06-3.71c-2.46-2.47-3.69-5.91-3.69-10.32c0-4.33,1.34-7.84,4.03-10.51c2.69-2.67,6.36-4.01,11-4.01
				C1203.33,606.43,1206.11,607.33,1208.47,609.13z"/>
			<path d="M1231.42,634.46l-8.09-12.46l-3.08,3.26v9.2h-6.42v-37.77l6.42-1.54v22.35l9.17-10.56h7.73l-9.3,10.43l11.2,17.09
				H1231.42z"/>
		</g>
	</g>
</g>
</svg>
